<?xml version="1.0" standalone="no"?>
<!DOCTYPE svg PUBLIC "-//W3C//DTD SVG 20010904//EN"
 "http://www.w3.org/TR/2001/REC-SVG-20010904/DTD/svg10.dtd">
<svg version="1.0" xmlns="http://www.w3.org/2000/svg"
 width="225.000000pt" height="225.000000pt" viewBox="0 0 225.000000 225.000000"
 preserveAspectRatio="xMidYMid meet">

<g transform="translate(0.000000,225.000000) scale(0.100000,-0.100000)"
fill="#000000" stroke="none">
<path d="M60 2243 c-76 -28 -76 -145 1 -172 18 -6 71 -11 118 -11 l86 0 246
-498 246 -499 -63 -124 c-34 -68 -65 -140 -69 -160 -15 -85 47 -185 130 -208
27 -7 231 -11 633 -11 509 0 597 2 622 15 59 30 68 98 21 146 l-29 29 -596 0
c-328 0 -596 2 -596 5 0 3 20 46 45 95 l45 90 415 0 c393 0 418 1 454 20 21
10 49 32 62 48 13 16 112 205 219 421 187 376 195 395 195 450 -1 74 -34 129
-97 160 -44 21 -49 21 -861 21 l-816 0 -43 82 c-27 52 -52 88 -68 95 -25 13
-269 17 -300 6z m2000 -368 c0 -3 -84 -174 -187 -380 l-188 -375 -372 0 -373
0 -185 370 c-102 203 -185 374 -185 380 0 7 252 10 745 10 410 0 745 -2 745
-5z"/>
<path d="M784 456 c-58 -18 -102 -54 -132 -106 -22 -37 -27 -57 -27 -115 0
-59 5 -78 28 -118 119 -202 430 -116 430 118 0 65 -17 111 -62 158 -56 62
-159 89 -237 63z m104 -188 c28 -28 7 -78 -33 -78 -27 0 -45 18 -45 45 0 27
18 45 45 45 12 0 26 -5 33 -12z"/>
<path d="M1775 461 c-208 -51 -242 -334 -53 -432 200 -103 412 108 312 309
-30 61 -74 98 -140 118 -51 15 -72 16 -119 5z m88 -202 c19 -27 10 -58 -19
-65 -48 -12 -75 18 -56 62 14 30 55 32 75 3z"/>
</g>
</svg>
