<?xml version="1.0" standalone="no"?>
<!DOCTYPE svg PUBLIC "-//W3C//DTD SVG 20010904//EN"
 "http://www.w3.org/TR/2001/REC-SVG-20010904/DTD/svg10.dtd">
<svg version="1.0" xmlns="http://www.w3.org/2000/svg"
 width="225.000000pt" height="225.000000pt" viewBox="0 0 225.000000 225.000000"
 preserveAspectRatio="xMidYMid meet">

<g transform="translate(0.000000,225.000000) scale(0.100000,-0.100000)"
fill="#000000" stroke="none">
<path d="M975 2239 c-429 -54 -807 -380 -929 -803 -95 -328 -29 -702 172 -972
424 -570 1235 -621 1722 -108 429 451 408 1153 -46 1584 -248 236 -575 342
-919 299z m239 -99 c567 -55 977 -548 925 -1109 -39 -423 -338 -777 -751 -891
-600 -165 -1219 266 -1277 889 -52 557 359 1057 912 1110 45 5 84 9 87 9 3 1
50 -3 104 -8z"/>
<path d="M1013 1685 l-118 -239 -255 -38 c-140 -20 -259 -37 -265 -38 -5 0 77
-85 183 -188 l193 -187 -45 -260 c-25 -142 -44 -260 -43 -261 1 -2 108 53 237
121 l235 124 40 -23 c31 -18 400 -212 425 -224 3 -1 -14 115 -39 259 l-44 261
189 189 190 188 -41 6 c-22 4 -139 21 -260 38 l-220 32 -122 240 -121 240
-119 -240z"/>
</g>
</svg>
