<?xml version="1.0" standalone="no"?>
<!DOCTYPE svg PUBLIC "-//W3C//DTD SVG 20010904//EN"
 "http://www.w3.org/TR/2001/REC-SVG-20010904/DTD/svg10.dtd">
<svg version="1.0" xmlns="http://www.w3.org/2000/svg"
 width="225.000000pt" height="225.000000pt" viewBox="0 0 225.000000 225.000000"
 preserveAspectRatio="xMidYMid meet">

<g transform="translate(0.000000,225.000000) scale(0.100000,-0.100000)"
fill="#000000" stroke="none">
<path d="M975 2239 c-591 -74 -1031 -633 -966 -1228 67 -620 618 -1069 1230
-1002 459 49 838 366 965 805 95 328 29 702 -172 972 -251 336 -643 504 -1057
453z m295 -475 c255 -72 421 -355 355 -608 -26 -97 -65 -167 -135 -239 l-66
-68 60 -30 c92 -47 145 -86 221 -164 86 -88 143 -179 128 -203 -25 -41 -185
-157 -278 -202 -164 -81 -230 -95 -430 -95 -148 0 -180 3 -250 23 -155 45
-296 124 -420 235 l-50 45 23 44 c60 115 188 238 323 308 l76 39 -67 68 c-159
163 -194 396 -90 592 118 220 359 322 600 255z"/>
</g>
</svg>
